# xmcd
#
# Track frame offsets:
#       150
#       24433
#       50186
#
# Disc length: 1041 seconds
#
# Revision: 0
# Processed by: cddbd v1.5.2PL0 Copyright (c) Steve Scherf et al.
# Submitted via: WaveLab 4.01
#
DISCID=21040f03
DTITLE=Quentin Harris - No Politics
DYEAR=2007
DGENRE=House
TTITLE0=Quentin Harris - Say Yes (Extended Version)
TTITLE1=Quentin Harris - House
TTITLE2=Quentin Harris - Episodes #3 (The Lost Episode)
EXTD=
EXTT0=
EXTT1=
EXTT2=
PLAYORDER=
